<?xml version="1.0" standalone="no"?>
<!DOCTYPE svg PUBLIC "-//W3C//DTD SVG 20010904//EN"
 "http://www.w3.org/TR/2001/REC-SVG-20010904/DTD/svg10.dtd">
<svg version="1.0" xmlns="http://www.w3.org/2000/svg"
 width="1230.000000pt" height="500.000000pt" viewBox="0 0 1230.000000 500.000000"
 preserveAspectRatio="xMidYMid meet">
<metadata>
Created by potrace 1.16, written by Peter Selinger 2001-2019
</metadata>
<g transform="translate(0.000000,500.000000) scale(0.100000,-0.100000)"
fill="#000000" stroke="none">
<path d="M0 2500 l0 -2500 6150 0 6150 0 0 2500 0 2500 -6150 0 -6150 0 0
-2500z m4501 2319 c7 -14 10 -85 7 -218 l-3 -196 -31 -55 c-36 -64 -103 -119
-178 -146 -49 -18 -116 -19 -1401 -24 -1253 -5 -1353 -6 -1394 -22 -121 -49
-214 -160 -240 -290 -31 -149 58 -327 198 -395 l56 -28 900 -6 c988 -6 966 -5
1101 -68 131 -61 223 -189 247 -340 6 -39 15 -71 20 -71 4 0 19 -11 32 -25 23
-22 25 -32 25 -109 l0 -85 403 -3 c398 -3 403 -3 454 -27 65 -29 134 -101 159
-166 18 -48 19 -87 19 -940 0 -884 0 -890 -21 -936 -32 -68 -82 -119 -149
-151 l-60 -28 -2135 0 -2135 0 -51 24 c-69 32 -118 78 -148 138 l-26 52 0 905
0 906 24 50 c29 62 86 117 151 147 l50 23 1623 3 1622 2 0 86 c0 77 2 87 25
109 13 14 31 25 40 25 14 0 15 8 9 48 -22 151 -111 264 -248 313 -105 37 -165
39 -1011 39 -522 0 -854 4 -894 10 -238 39 -405 291 -350 529 29 129 133 255
256 314 l68 32 1355 5 1355 5 55 22 c60 25 122 81 139 126 6 16 11 107 11 213
0 109 4 193 10 205 14 25 46 24 61 -2z m2753 -739 c127 -49 197 -165 167 -278
-41 -158 -206 -274 -471 -334 -94 -20 -129 -23 -330 -23 -193 1 -239 4 -327
23 -55 12 -104 22 -107 22 -3 0 -32 -39 -64 -87 -290 -432 -371 -764 -212
-871 31 -21 44 -23 112 -20 144 8 295 102 503 312 138 139 279 317 356 449 71
121 112 167 150 167 22 0 32 -7 41 -25 18 -39 -3 -89 -83 -195 -81 -108 -178
-298 -209 -410 -30 -109 -37 -236 -16 -282 50 -105 177 -51 317 135 36 49 113
176 170 283 57 108 119 213 137 235 31 36 37 39 86 39 29 0 56 -3 59 -6 4 -4
-6 -23 -22 -43 -40 -51 -90 -131 -146 -236 l-49 -90 93 98 c96 100 210 185
314 232 52 24 127 44 127 33 0 -3 -44 -92 -98 -199 -104 -204 -142 -304 -142
-368 0 -150 179 5 281 244 69 160 169 279 281 334 82 40 154 54 217 40 54 -11
121 -61 121 -89 0 -34 -21 -32 -53 5 -27 31 -39 36 -73 37 -62 1 -111 -28
-199 -117 -125 -128 -234 -319 -235 -413 0 -60 14 -82 52 -82 72 0 164 103
289 323 39 70 86 139 102 153 28 23 37 25 81 19 28 -3 52 -8 54 -9 2 -2 -9
-21 -23 -42 -104 -152 -186 -391 -151 -440 14 -19 15 -19 50 0 52 28 130 141
241 350 55 103 115 206 133 227 31 36 37 39 86 39 29 0 56 -3 59 -6 4 -4 -6
-23 -22 -43 -40 -50 -89 -131 -147 -236 l-48 -90 93 98 c97 101 211 185 314
232 53 25 127 43 127 33 0 -3 -42 -88 -94 -189 -158 -308 -190 -458 -92 -433
60 15 144 127 252 336 82 159 162 251 261 300 81 40 168 48 239 24 26 -9 49
-16 52 -16 2 0 64 124 138 275 78 160 144 281 156 290 22 15 94 20 134 9 20
-5 18 -11 -36 -97 -135 -216 -445 -820 -488 -950 -12 -37 -22 -80 -22 -95 0
-69 60 -86 121 -35 56 47 125 166 305 525 227 452 278 546 319 586 31 29 41
32 95 32 33 0 60 -2 60 -5 0 -2 -22 -37 -49 -77 -83 -124 -243 -412 -380 -685
l-71 -143 102 103 c134 136 314 246 400 247 l28 0 -36 -62 c-148 -261 -233
-486 -208 -552 10 -26 60 -19 97 14 48 42 131 172 171 267 39 94 90 173 159
249 79 87 241 154 330 137 77 -14 150 -71 131 -100 -16 -25 -32 -26 -39 -3
-17 55 -107 68 -179 26 -97 -57 -264 -274 -320 -415 -20 -52 -23 -135 -6 -156
16 -19 53 -19 88 -1 63 33 159 158 252 331 79 147 105 167 191 148 l37 -8 -53
-87 c-91 -151 -148 -316 -131 -383 20 -79 138 37 251 248 26 48 51 87 56 87
19 0 8 -36 -37 -119 -105 -193 -195 -291 -269 -291 -75 0 -121 67 -112 160 4
31 9 65 13 76 4 10 -14 -10 -41 -46 -98 -133 -169 -190 -239 -190 -61 0 -116
75 -116 160 0 22 -2 21 -26 -15 -66 -99 -131 -147 -202 -148 -78 -1 -132 50
-132 126 0 58 37 157 95 257 63 110 69 140 27 140 -19 0 -49 -17 -94 -55 -106
-86 -200 -208 -293 -378 -20 -37 -44 -71 -54 -76 -9 -4 -40 -11 -68 -14 l-53
-6 20 40 21 40 -42 -30 c-114 -83 -219 -23 -219 125 l0 56 -40 -60 c-82 -122
-163 -173 -243 -151 -67 18 -107 79 -107 164 0 28 -3 26 -41 -32 -77 -119
-160 -167 -242 -141 -99 31 -113 138 -40 291 22 45 54 104 71 131 61 96 24
129 -68 61 -101 -74 -220 -225 -314 -397 -21 -36 -42 -71 -49 -76 -7 -5 -38
-12 -69 -15 l-58 -6 20 39 20 38 -51 -34 c-63 -42 -105 -44 -148 -8 -41 34
-55 88 -41 161 5 31 10 59 10 61 0 2 -16 -20 -36 -49 -48 -71 -140 -165 -180
-184 -80 -38 -154 5 -174 100 -6 30 -9 60 -5 67 3 7 -2 2 -12 -12 -98 -134
-149 -174 -222 -174 -33 0 -57 7 -78 22 -85 60 -69 176 53 383 52 89 56 119
18 119 -77 0 -249 -187 -370 -401 -30 -54 -61 -102 -67 -107 -19 -15 -129 -23
-120 -9 4 6 -15 -7 -42 -30 -143 -118 -285 -133 -349 -36 -52 78 -54 233 -6
370 l18 52 -106 -108 c-178 -179 -348 -294 -484 -326 -100 -23 -174 -19 -233
13 -176 96 -180 403 -10 742 39 77 132 224 184 291 l21 26 -67 39 c-95 55
-156 118 -172 176 -22 78 3 168 47 168 11 0 13 -11 7 -58 -5 -43 -2 -69 9 -95
19 -47 87 -115 156 -154 l54 -32 108 105 c222 214 427 338 649 392 111 28 136
30 254 27 75 -2 115 -8 159 -25z m-465 -1956 l31 -7 -38 -41 c-97 -105 -289
-411 -391 -619 -86 -178 -85 -184 4 -89 129 137 256 212 360 212 46 0 85 -33
85 -74 0 -38 -41 -124 -73 -154 -42 -39 -139 -91 -194 -103 -65 -15 -73 -29
-73 -127 0 -91 32 -161 85 -186 34 -17 40 -17 79 -2 23 9 56 29 73 45 105 95
252 419 313 684 23 103 37 127 74 127 33 0 58 -33 63 -83 7 -56 -15 -104 -69
-152 l-40 -36 139 2 138 2 -1 -35 c-1 -22 -30 -94 -76 -189 -127 -259 -149
-369 -74 -369 28 0 103 83 159 178 56 95 171 376 164 400 -3 9 -8 25 -12 35
-6 15 0 17 58 17 75 0 97 -6 97 -27 0 -8 -45 -121 -100 -250 -112 -261 -124
-309 -91 -342 25 -25 42 -26 87 -5 45 22 89 79 98 129 6 28 19 50 47 76 29 27
66 89 140 235 107 213 134 255 183 285 51 31 146 21 146 -16 0 -11 -9 -13 -44
-9 -54 8 -83 -7 -102 -51 -26 -63 -18 -136 26 -239 52 -122 63 -180 46 -245
-14 -56 -54 -119 -98 -156 -38 -32 -35 -39 14 -31 57 9 102 39 148 97 21 26
142 254 269 506 128 252 249 483 269 513 46 68 76 84 143 75 49 -7 50 -8 35
-29 -39 -53 -129 -202 -198 -326 -83 -149 -288 -543 -288 -554 0 -3 28 26 61
65 73 84 150 147 262 212 81 47 182 85 195 72 3 -3 -15 -45 -42 -93 -190 -346
-250 -569 -144 -537 62 19 125 106 267 370 108 200 139 248 172 266 24 13 140
1 117 -12 -24 -13 -111 -144 -169 -254 l-52 -100 81 87 c97 102 187 171 298
226 75 38 154 62 154 48 0 -4 -31 -64 -69 -134 -163 -301 -217 -492 -138 -492
63 0 149 106 246 304 40 81 91 167 120 202 111 136 294 207 409 158 42 -17 92
-61 92 -81 0 -28 -28 -23 -63 12 -41 41 -79 45 -142 16 -120 -55 -321 -324
-355 -475 -13 -57 1 -112 30 -121 71 -22 187 104 320 347 72 133 93 151 166
149 32 0 59 -3 62 -5 2 -3 -7 -20 -20 -38 -83 -112 -158 -291 -161 -385 -2
-67 -2 -68 25 -71 53 -6 144 116 278 373 125 239 145 261 232 250 l54 -7 -33
-35 c-34 -36 -111 -160 -164 -265 l-30 -60 92 96 c95 100 195 174 302 225 61
29 137 49 137 37 0 -4 -29 -60 -65 -125 -130 -236 -200 -425 -177 -477 8 -15
20 -24 35 -24 56 0 137 92 233 268 54 98 63 109 77 96 8 -9 -64 -151 -125
-247 -81 -126 -160 -178 -244 -163 -125 24 -127 178 -4 384 59 98 69 129 46
138 -69 26 -295 -217 -406 -437 -36 -71 -45 -77 -114 -85 l-57 -7 15 37 15 37
-45 -33 c-51 -37 -97 -42 -139 -14 -48 32 -68 116 -46 194 5 17 8 32 6 32 -3
0 -20 -24 -40 -52 -55 -82 -142 -165 -192 -184 -44 -17 -47 -17 -81 2 -49 27
-70 60 -80 124 l-7 55 -25 -40 c-81 -131 -177 -181 -266 -139 -44 21 -64 60
-64 124 0 66 26 139 89 245 60 103 70 132 47 141 -30 11 -78 -19 -161 -100
-90 -89 -162 -187 -231 -312 -24 -45 -50 -87 -57 -93 -8 -6 -39 -13 -71 -17
l-58 -7 16 32 c15 28 7 46 -9 21 -4 -6 -25 -20 -47 -31 -87 -45 -183 0 -195
90 -9 64 22 159 88 270 61 103 71 137 43 148 -26 10 -77 -24 -158 -106 -95
-95 -149 -167 -223 -298 -32 -57 -65 -105 -73 -107 -8 -3 -37 -8 -64 -12 -46
-6 -49 -5 -41 12 21 53 19 56 -19 30 -41 -27 -110 -42 -157 -32 -16 3 -49 1
-72 -6 -26 -6 -62 -8 -92 -4 -41 7 -57 16 -92 51 -37 39 -43 42 -55 28 -7 -9
-33 -29 -57 -45 -105 -66 -221 -10 -221 107 l0 35 -53 -62 c-68 -80 -109 -108
-159 -108 -53 0 -74 13 -99 62 -37 72 -25 127 66 304 45 87 75 158 72 167 -11
28 -53 47 -107 50 l-53 2 -20 -50 c-105 -262 -160 -367 -235 -448 -57 -60 -95
-84 -159 -97 -133 -29 -239 70 -237 220 1 65 32 142 66 163 12 8 43 18 68 21
89 14 180 91 180 152 0 38 -16 54 -54 54 -67 0 -168 -68 -280 -189 -92 -98
-132 -191 -143 -333 l-6 -78 -68 0 c-62 0 -69 2 -69 19 0 27 43 143 90 246 22
47 37 85 35 85 -2 0 -22 -34 -45 -76 -55 -100 -104 -177 -124 -193 -33 -28
-16 20 43 117 32 53 118 212 191 352 359 689 383 721 519 694z m948 -340 c20
-20 24 -31 19 -57 -14 -70 -89 -106 -139 -67 -45 36 -31 106 28 138 33 18 64
14 92 -14z"/>
<path d="M554 2358 c-36 -17 -44 -52 -44 -199 l0 -141 29 -29 29 -29 161 0
c96 0 170 4 184 11 39 18 47 50 47 195 0 147 -10 186 -52 198 -38 10 -331 5
-354 -6z m326 -193 l0 -125 -145 0 -145 0 0 125 0 125 145 0 145 0 0 -125z"/>
<path d="M1136 2349 l-26 -20 0 -164 0 -164 27 -21 c26 -20 36 -21 201 -18
225 4 212 -8 212 205 0 150 -1 155 -25 178 -24 25 -27 25 -193 25 -156 0 -171
-2 -196 -21z m344 -184 l0 -125 -150 0 -150 0 0 125 0 125 150 0 150 0 0 -125z"/>
<path d="M1726 2349 l-26 -20 0 -164 0 -164 27 -21 c26 -20 36 -21 201 -18
225 4 212 -8 212 205 0 150 -1 155 -25 178 -24 25 -27 25 -193 25 -156 0 -171
-2 -196 -21z m344 -184 l0 -125 -150 0 -150 0 0 125 0 125 150 0 150 0 0 -125z"/>
<path d="M2315 2345 c-24 -24 -25 -28 -25 -180 0 -152 1 -156 25 -180 24 -25
27 -25 195 -25 168 0 171 0 195 25 24 24 25 28 25 184 l0 160 -26 20 c-25 19
-40 21 -196 21 -166 0 -169 0 -193 -25z m345 -180 l0 -125 -150 0 -150 0 0
125 0 125 150 0 150 0 0 -125z"/>
<path d="M2905 2345 c-24 -23 -25 -28 -25 -178 0 -213 -13 -201 212 -205 165
-3 175 -2 201 18 l27 21 0 164 0 164 -26 20 c-25 19 -40 21 -196 21 -166 0
-169 0 -193 -25z m345 -180 l0 -125 -150 0 -150 0 0 125 0 125 150 0 150 0 0
-125z"/>
<path d="M3495 2345 c-24 -23 -25 -29 -25 -167 0 -79 3 -153 6 -166 12 -43 50
-52 223 -52 155 0 161 1 188 24 l28 24 0 157 0 157 -28 24 c-27 23 -33 24
-198 24 -167 0 -170 0 -194 -25z m345 -180 l0 -125 -145 0 -145 0 0 125 0 125
145 0 145 0 0 -125z"/>
<path d="M4104 2358 c-12 -5 -27 -21 -33 -34 -15 -33 -15 -285 0 -317 18 -40
49 -47 214 -47 92 0 164 5 178 11 39 18 47 50 47 194 0 144 -8 176 -47 194
-31 14 -330 14 -359 -1z m326 -193 l0 -125 -145 0 -145 0 0 125 0 125 145 0
145 0 0 -125z"/>
<path d="M574 1813 c-12 -2 -30 -13 -40 -25 -17 -18 -19 -38 -19 -180 0 -210
-14 -198 220 -198 232 0 219 -11 223 193 3 152 3 155 -21 183 l-25 29 -159 2
c-87 0 -168 -1 -179 -4z m306 -203 l0 -130 -145 0 -145 0 0 130 0 130 145 0
145 0 0 -130z"/>
<path d="M1165 1813 c-52 -13 -55 -25 -55 -200 0 -217 -15 -203 215 -203 173
0 176 0 200 25 24 23 25 28 25 169 0 161 -7 190 -53 206 -29 10 -293 12 -332
3z m313 -200 l-3 -128 -147 -3 -148 -3 0 131 0 130 150 0 151 0 -3 -127z"/>
<path d="M1753 1813 c-46 -9 -53 -36 -53 -203 0 -211 -12 -200 219 -200 169 0
172 0 196 25 24 23 25 28 25 175 0 83 -4 160 -10 170 -17 31 -67 40 -214 39
-78 -1 -151 -4 -163 -6z m315 -200 l-3 -128 -147 -3 -148 -3 0 131 0 130 150
0 151 0 -3 -127z"/>
<path d="M2334 1806 c-17 -8 -34 -21 -38 -31 -3 -9 -6 -85 -6 -169 0 -207 -12
-196 221 -196 231 0 219 -11 219 199 0 84 -4 161 -10 171 -5 10 -24 23 -41 29
-46 16 -306 14 -345 -3z m326 -196 l0 -130 -150 0 -150 0 0 130 0 130 150 0
150 0 0 -130z"/>
<path d="M2924 1806 c-17 -8 -34 -21 -38 -31 -3 -9 -6 -84 -6 -166 0 -146 1
-151 25 -174 24 -25 27 -25 198 -25 231 0 217 -13 217 204 0 213 13 200 -204
204 -121 1 -169 -1 -192 -12z m326 -196 l0 -131 -147 3 -148 3 -3 128 -3 127
151 0 150 0 0 -130z"/>
<path d="M3524 1811 c-47 -20 -54 -45 -54 -204 0 -144 1 -149 25 -172 24 -25
27 -25 200 -25 233 0 230 -4 223 233 -4 177 2 171 -211 174 -89 2 -172 -1
-183 -6z m316 -201 l0 -130 -145 0 -145 0 0 130 0 130 145 0 145 0 0 -130z"/>
<path d="M4123 1813 c-13 -2 -32 -16 -43 -31 -20 -25 -21 -37 -18 -180 4 -203
-9 -192 223 -192 232 0 219 -11 223 193 3 152 3 155 -21 183 l-25 29 -159 2
c-87 0 -168 -1 -180 -4z m307 -203 l0 -130 -145 0 -145 0 0 130 0 130 145 0
145 0 0 -130z"/>
<path d="M539 1241 c-23 -19 -24 -23 -24 -179 0 -216 -16 -202 221 -202 l183
0 20 26 c19 24 21 40 21 176 0 145 -1 150 -25 173 -24 25 -27 25 -198 25 -157
0 -177 -2 -198 -19z m341 -181 l0 -130 -145 0 -145 0 0 130 0 130 145 0 145 0
0 -130z"/>
<path d="M1130 1240 c-18 -18 -20 -33 -20 -183 0 -146 2 -166 18 -180 17 -16
107 -17 1085 -17 1054 0 1067 0 1087 20 18 18 20 33 20 180 0 147 -2 162 -20
180 -20 20 -33 20 -1085 20 -1052 0 -1065 0 -1085 -20z m2120 -180 l0 -130
-1035 0 -1035 0 0 130 0 130 1035 0 1035 0 0 -130z"/>
<path d="M3495 1235 c-24 -23 -25 -28 -25 -173 0 -136 2 -152 21 -176 l20 -26
183 0 c231 0 220 -9 225 166 6 237 9 234 -224 234 -173 0 -176 0 -200 -25z
m345 -175 l0 -130 -145 0 -145 0 0 130 0 130 145 0 145 0 0 -130z"/>
<path d="M4089 1241 c-23 -19 -24 -23 -24 -179 0 -216 -16 -202 221 -202 l183
0 21 27 c20 26 21 37 18 181 -4 203 9 192 -223 192 -155 0 -175 -2 -196 -19z
m341 -181 l0 -130 -145 0 -145 0 0 130 0 130 145 0 145 0 0 -130z"/>
<path d="M6985 4054 c-248 -38 -453 -166 -689 -429 l-80 -90 74 -18 c100 -24
379 -34 518 -18 364 43 545 183 533 413 -2 41 -63 103 -119 123 -48 16 -183
27 -237 19z"/>
<path d="M9707 3199 c-57 -30 -191 -163 -242 -239 -57 -86 -103 -183 -111
-236 -14 -97 22 -141 90 -109 48 23 94 76 181 209 70 107 219 366 213 371 -36
29 -81 31 -131 4z"/>
<path d="M7866 1331 l-87 -170 21 -21 c13 -13 20 -33 20 -60 0 -53 21 -101 55
-129 l28 -21 24 21 c35 34 63 120 63 197 0 67 -26 341 -33 348 -2 3 -43 -72
-91 -165z"/>
</g>
</svg>
